<?xml version="1.0" encoding="utf-8"?>
<!-- Generator: Adobe Illustrator 28.4.1, SVG Export Plug-In . SVG Version: 6.00 Build 0)  -->
<svg version="1.1" id="Layer_1" xmlns="http://www.w3.org/2000/svg" xmlns:xlink="http://www.w3.org/1999/xlink" x="0px" y="0px"
	 viewBox="0 0 1920 1920" style="enable-background:new 0 0 1920 1920;" xml:space="preserve">
<path d="M94.66,1655.81c0-58.1-1.87-144.32-4.07-259.28c-3.12-115.27-4.37-199.93-4.37-254.28c0-107.14,3.12-198.36,9.69-276.46
	c5.93-76.84,19.99-154.93,41.85-235.53c21.86-82.16,51.54-146.82,89.97-195.86c37.8-50.3,89.34-89.97,154.63-123.08
	c65.6-31.86,143.07-46.23,234.29-46.23l173.99,346.74c-125.58,0-214.29,27.8-268.02,81.84c-53.42,54.35-80.6,143.07-80.6,266.15
	h348.62v695.99H94.66z"/>
<path d="M1138.01,1655.81c0-58.1-1.25-144.32-3.75-259.28c-2.81-115.27-4.07-199.93-4.07-254.28c0-107.14,3.13-198.36,10-276.46
	c5.93-76.84,19.67-154.93,41.54-235.53c21.86-82.16,51.54-146.82,89.97-195.86c37.8-50.3,89.97-89.97,154.94-123.08
	c65.28-31.86,142.76-46.23,233.35-46.23l174,346.74c-124.95,0-213.67,27.8-267.09,81.84c-53.73,54.35-80.28,143.07-80.28,266.15
	H1834v695.99H1138.01z"/>
</svg>
